# xmcd
#
# Track frame offsets: 
#        150
#        14462
#        28417
#        40930
#        53985
#        66407
#        80160
#        90895
#        104062
#        116625
#        129277
#        140730
#        152440
#        165917
#        179105
#        192555
#        203547
#        216830
#        230385
#        244115
#        257392
#        270477
#        282882
#        295145
#
# Disc length: 4112 seconds
#
# Revision: 1
# Processed by: cddbd v1.5.1PL0 Copyright (c) Steve Scherf et al.
# Submitted via: ExactAudioCopy v0.90b4
#
DISCID=60100e18
DTITLE=Slim Dusty - Regal Zonophone Collection [CD1]
DYEAR=1995
DGENRE=Country
TTITLE0=When The Rain Tumbles Down In July
TTITLE1=My Faded Dream
TTITLE2=How Can I Smile When I'm Lonely
TTITLE3=Been A Fool Too Long
TTITLE4=You Don't Know How Sad I Feel
TTITLE5=Modern Yodelling Song
TTITLE6=My Moonlight Trail To You
TTITLE7=My Aussie Home
TTITLE8=Give Me One More Chance
TTITLE9=Sat'day In The Saddle
TTITLE10=My Pony Whipstick
TTITLE11=My Happy Valley Home
TTITLE12=Stay Away From Me
TTITLE13=A Song Of Granny
TTITLE14=Springtime On The Range
TTITLE15=Why Worry Now
TTITLE16=Answer To The Silvery Moonlight Trail
TTITLE17=I Bet You Feel The Same
TTITLE18=Sun Valley Rose
TTITLE19=Good Old Santa Claus
TTITLE20=Whisky Blues
TTITLE21=You Made Me Live Love And Die
TTITLE22=The Grandest Homestead Of All
TTITLE23=Dolly Dimple Dance
EXTD=
EXTT0=
EXTT1=
EXTT2=
EXTT3=
EXTT4=
EXTT5=
EXTT6=
EXTT7=
EXTT8=
EXTT9=
EXTT10=
EXTT11=
EXTT12=
EXTT13=
EXTT14=
EXTT15=
EXTT16=
EXTT17=
EXTT18=
EXTT19=
EXTT20=
EXTT21=
EXTT22=
EXTT23=
PLAYORDER=
